<?xml version="1.0" standalone="no"?>
<svg xmlns="http://www.w3.org/2000/svg" width="48" height="48"><rect width="48" height="48" opacity="0"></rect><g><path d="M29.42 35.9Q29.86 35.52 29.86 34.9Q29.86 34.27 29.42 33.84L19.78 24.14L29.38 14.5Q29.86 14.06 29.86 13.44Q29.86 12.82 29.38 12.38Q28.94 11.9 28.32 11.9Q27.7 11.9 27.26 12.38L17.28 22.37Q16.51 23.14 16.51 24.14Q16.51 25.15 17.28 25.92L27.31 35.9Q27.74 36.38 28.37 36.38Q28.99 36.38 29.42 35.9Z" fill="rgba(255,255,255,1)"></path><path d="M4.99 24Q4.99 18.86 7.56 14.5Q10.13 10.13 14.5 7.56Q18.86 4.99 24 4.99Q29.14 4.99 33.5 7.56Q37.87 10.13 40.44 14.5Q43.01 18.86 43.01 24Q43.01 29.14 40.44 33.5Q37.87 37.87 33.5 40.44Q29.14 43.01 24 43.01Q18.86 43.01 14.5 40.46Q10.13 37.92 7.56 33.55Q4.99 29.18 4.99 24ZM2.02 24Q2.02 30 4.97 35.04Q7.92 40.08 12.96 43.03Q18 45.98 24 45.98Q30 45.98 35.04 43.03Q40.08 40.08 43.03 35.04Q45.98 30 45.98 24Q45.98 18.05 43.03 12.98Q40.08 7.92 35.02 4.97Q29.95 2.02 24 2.02Q18.05 2.02 12.98 4.97Q7.92 7.92 4.97 12.98Q2.02 18.05 2.02 24Z" fill="rgba(255,255,255,1)"></path></g></svg>